<svg width="200" height="200" viewBox="0 0 200 200" fill="none" xmlns="http://www.w3.org/2000/svg">
<path d="M200 100C200 155.228 113 200.5 100 200C87 199.5 0 155.228 0 100C0 44.7715 44.7715 0 100 0C155.228 0 200 44.7715 200 100Z" fill="#211F1F"/>
<g filter="url(#filter0_d_68_8)">
<path d="M17.9388 79.88C17.9388 80.12 17.7388 80.2267 17.3388 80.2C16.9654 80.1733 16.5254 80.0933 16.0188 79.96C15.5121 79.8 15.0321 79.6133 14.5788 79.4C14.1254 79.16 13.8454 78.9467 13.7387 78.76C13.7121 76.9733 13.9387 75.3733 14.4188 73.96C14.9254 72.5467 15.5788 71.2933 16.3788 70.2C17.1788 69.1067 18.0988 68.16 19.1388 67.36C20.2054 66.56 21.2988 65.8667 22.4188 65.28C23.5388 64.6933 24.6588 64.2133 25.7788 63.84C26.8988 63.44 27.9388 63.1067 28.8988 62.84C30.5788 62.3867 32.3121 62.0667 34.0988 61.88C35.9121 61.6933 37.7254 61.6 39.5388 61.6C41.0588 61.6 42.6321 61.64 44.2588 61.72C45.8854 61.8 47.4188 61.9067 48.8588 62.04C50.1388 62.1467 51.4188 62.24 52.6988 62.32C53.9788 62.3733 55.1921 62.4 56.3388 62.4C57.7521 62.4 59.0588 62.32 60.2588 62.16C61.4588 62 62.5654 61.6933 63.5788 61.24C63.7654 61.16 63.8721 61.28 63.8988 61.6C63.9254 61.92 63.8988 62.2933 63.8188 62.72C63.7388 63.1467 63.6188 63.5733 63.4588 64C63.3254 64.4 63.1654 64.6667 62.9788 64.8C61.9121 65.1733 60.7388 65.4533 59.4588 65.64C58.2054 65.8 56.9254 65.88 55.6188 65.88C54.1521 65.88 52.6321 65.8133 51.0588 65.68C49.5121 65.52 47.9388 65.36 46.3388 65.2C44.6321 65.0133 42.8988 64.84 41.1388 64.68C39.4054 64.52 37.6721 64.44 35.9388 64.44C34.8454 64.44 33.7654 64.48 32.6988 64.56C31.6588 64.64 30.6054 64.7867 29.5388 65C28.0988 65.2667 26.6988 65.72 25.3388 66.36C24.0054 67 22.8054 67.9067 21.7388 69.08C20.6721 70.2267 19.7921 71.6933 19.0988 73.48C18.4321 75.24 18.0454 77.3733 17.9388 79.88ZM36.6188 65.92C36.7521 65.7067 37.0721 65.68 37.5788 65.84C38.1121 65.9733 38.6454 66.2267 39.1788 66.6C39.7388 66.9467 40.2054 67.3867 40.5788 67.92C40.9521 68.4267 41.0454 68.9333 40.8588 69.44C39.5254 71.0667 38.2054 72.84 36.8988 74.76C35.5921 76.6533 34.3388 78.6133 33.1388 80.64C31.9388 82.64 30.8188 84.6667 29.7788 86.72C28.7388 88.7733 27.8188 90.7733 27.0188 92.72C26.2188 94.6667 25.5521 96.52 25.0188 98.28C24.4854 100.04 24.1388 101.613 23.9788 103C23.9521 103.187 23.7788 103.16 23.4588 102.92C23.1388 102.707 22.7788 102.4 22.3788 102C22.0054 101.627 21.6588 101.227 21.3388 100.8C21.0454 100.373 20.8854 100.04 20.8588 99.8C20.9388 98.3867 21.2454 96.76 21.7788 94.92C22.3121 93.08 22.9921 91.1467 23.8188 89.12C24.6721 87.0933 25.6321 85.0133 26.6988 82.88C27.7654 80.72 28.8721 78.6267 30.0188 76.6C31.1654 74.5733 32.2988 72.64 33.4188 70.8C34.5654 68.96 35.6321 67.3333 36.6188 65.92ZM50.7684 84.28C49.6218 86.36 48.0884 88.1067 46.1684 89.52C44.2484 90.9067 42.0884 91.9467 39.6884 92.64V92.96C39.6884 93.8133 39.8484 94.6533 40.1684 95.48C40.5151 96.28 41.0484 96.8 41.7684 97.04C42.2751 97.1467 42.8884 97.1067 43.6084 96.92C44.3284 96.7067 45.0884 96.3467 45.8884 95.84C46.6884 95.3067 47.5151 94.6267 48.3684 93.8C49.2218 92.9467 50.0484 91.9333 50.8484 90.76C51.2751 90.1467 51.6618 89.5467 52.0084 88.96C52.3551 88.3733 52.6751 87.8133 52.9684 87.28C53.1284 87.0667 53.3418 86.9333 53.6084 86.88C53.8751 86.8267 54.1151 86.84 54.3284 86.92C54.5684 86.9733 54.7284 87.0933 54.8084 87.28C54.9151 87.4667 54.8884 87.6933 54.7284 87.96L53.9684 89.2C53.3284 90.24 52.5418 91.4133 51.6084 92.72C50.6751 94 49.5418 95.2667 48.2084 96.52C47.4618 97.16 46.7151 97.6533 45.9684 98C45.2218 98.3467 44.5018 98.6133 43.8084 98.8C43.1418 98.96 42.5284 99.0533 41.9684 99.08C41.4084 99.1067 40.9684 99.12 40.6484 99.12C38.6751 99.12 37.1418 98.64 36.0484 97.68C34.9551 96.72 34.3684 95.4133 34.2884 93.76C34.2351 92.24 34.5151 90.7467 35.1284 89.28C35.7418 87.7867 36.7284 86.1333 38.0884 84.32C38.5151 83.76 39.0884 83.1467 39.8084 82.48C40.5551 81.8133 41.3818 81.2133 42.2884 80.68C43.2218 80.12 44.2084 79.6667 45.2484 79.32C46.2884 78.9733 47.3284 78.8133 48.3684 78.84C49.3818 78.8667 50.1951 79.1333 50.8084 79.64C51.4218 80.1467 51.7284 80.8133 51.7284 81.64C51.7284 82.4133 51.4084 83.2933 50.7684 84.28ZM48.3684 80.88C47.3284 81.0933 46.3284 81.6 45.3684 82.4C44.4351 83.1733 43.5951 84.08 42.8484 85.12C42.1284 86.16 41.5018 87.24 40.9684 88.36C40.4618 89.48 40.1018 90.4667 39.8884 91.32C41.8084 90.6533 43.5418 89.6667 45.0884 88.36C46.6618 87.0267 47.9551 85.4 48.9684 83.48C49.1818 83 49.2884 82.52 49.2884 82.04C49.2884 81.64 49.2084 81.3333 49.0484 81.12C48.9151 80.9067 48.6884 80.8267 48.3684 80.88ZM48.9319 94.4C48.9319 93.5467 49.1585 92.7067 49.6119 91.88C50.0652 91.0267 50.6385 90.3333 51.3319 89.8C51.4919 89.5333 51.6652 89.2667 51.8519 89C52.0652 88.7067 52.2385 88.4267 52.3719 88.16C53.0652 87.04 53.7719 85.9333 54.4919 84.84C55.2385 83.72 56.0385 82.6 56.8919 81.48C57.0519 81.2667 57.1985 81.0667 57.3319 80.88C57.4652 80.6933 57.5985 80.4933 57.7319 80.28C58.1585 79.6667 58.6519 79.0133 59.2119 78.32C59.7719 77.6267 60.5852 76.8133 61.6519 75.88C61.9719 76.0133 62.3719 76.2133 62.8519 76.48C63.3319 76.7467 63.7585 77.04 64.1319 77.36C64.5319 77.6533 64.8252 77.96 65.0119 78.28C65.1985 78.5733 65.1585 78.8133 64.8919 79H64.9319C64.5585 79.3467 64.2652 79.6533 64.0519 79.92C63.8652 80.1867 63.6252 80.5333 63.3319 80.96L62.8519 81.68C62.2919 82.56 61.9052 83.5067 61.6919 84.52C61.5052 85.5333 61.4119 86.56 61.4119 87.6C61.4119 88.1333 61.4252 88.6667 61.4519 89.2C61.4785 89.7333 61.5185 90.2667 61.5719 90.8L61.6919 92.96C61.7185 93.92 61.5719 94.8133 61.2519 95.64C60.9319 96.44 60.4652 97.12 59.8519 97.68C59.2385 98.24 58.5052 98.6667 57.6519 98.96C56.7985 99.2267 55.8785 99.3333 54.8919 99.28C52.8385 99.12 51.3319 98.5733 50.3719 97.64C49.4119 96.68 48.9319 95.6 48.9319 94.4ZM56.6919 87.64C56.6919 87.16 56.7185 86.68 56.7719 86.2C56.8252 85.6933 56.9185 85.1733 57.0519 84.64C56.6785 85.1733 56.3052 85.7333 55.9319 86.32C55.5585 86.9067 55.1985 87.48 54.8519 88.04L54.2119 89.04C54.6652 89.12 55.0919 89.2533 55.4919 89.44C55.5719 89.52 55.6785 89.72 55.8119 90.04C55.9452 90.36 56.0652 90.7067 56.1719 91.08C56.3052 91.4533 56.3852 91.8133 56.4119 92.16C56.4652 92.48 56.4252 92.7067 56.2919 92.84C55.6519 92.3067 55.0919 92.04 54.6119 92.04C54.2652 92.04 53.9052 92.1067 53.5319 92.24C53.1852 92.3733 52.8652 92.56 52.5719 92.8C52.3052 93.0133 52.0785 93.28 51.8919 93.6C51.7319 93.92 51.6519 94.28 51.6519 94.68C51.6519 94.92 51.6785 95.16 51.7319 95.4C51.8119 95.64 51.9052 95.8533 52.0119 96.04C52.3319 96.5733 52.7185 96.9733 53.1719 97.24C53.6252 97.48 54.0385 97.6133 54.4119 97.64C54.8919 97.6933 55.3052 97.6133 55.6519 97.4C55.9985 97.1867 56.2785 96.9067 56.4919 96.56C56.7052 96.1867 56.8652 95.76 56.9719 95.28C57.0785 94.7733 57.1319 94.2533 57.1319 93.72C57.1319 93.2667 57.1052 92.8 57.0519 92.32C57.0252 91.84 56.9852 91.36 56.9319 90.88C56.8785 90.3733 56.8252 89.84 56.7719 89.28C56.7185 88.72 56.6919 88.1733 56.6919 87.64ZM67.2922 79.04C67.0522 79.12 66.8389 79.1333 66.6522 79.08C66.4655 79.0267 66.3189 78.9467 66.2122 78.84C66.1055 78.7067 66.0655 78.5733 66.0922 78.44C66.1189 78.28 66.2255 78.1333 66.4122 78C68.3055 76.7733 70.2389 75.76 72.2122 74.96C73.6789 71.8133 74.7189 69.1067 75.3322 66.84C75.6522 66.68 76.0922 66.6667 76.6522 66.8C77.2122 66.9333 77.7455 67.16 78.2522 67.48C78.7589 67.8 79.1722 68.1867 79.4922 68.64C79.8122 69.0933 79.8922 69.5467 79.7322 70C79.6255 70.2667 79.4522 70.68 79.2122 71.24C78.9722 71.7733 78.6789 72.3867 78.3322 73.08C80.3322 72.68 82.3455 72.48 84.3722 72.48C84.6389 72.48 84.9589 72.4933 85.3322 72.52C85.7322 72.52 86.0655 72.5333 86.3322 72.56C86.4122 72.7733 86.4122 73.0133 86.3322 73.28C86.2522 73.5467 86.1189 73.8 85.9322 74.04C85.7722 74.2533 85.5722 74.44 85.3322 74.6C85.0922 74.7333 84.8522 74.7733 84.6122 74.72C84.2922 74.6933 83.9855 74.68 83.6922 74.68C83.3989 74.6533 83.1055 74.64 82.8122 74.64C81.8789 74.64 80.9455 74.6933 80.0122 74.8C79.1055 74.9067 78.1855 75.0667 77.2522 75.28L75.3722 78.96L75.1322 79.44C74.8922 79.8933 74.5589 80.5333 74.1322 81.36C73.7322 82.16 73.2922 83.0667 72.8122 84.08C72.3322 85.0667 71.8389 86.1067 71.3322 87.2C70.8522 88.2933 70.4122 89.36 70.0122 90.4C69.6122 91.4133 69.2789 92.36 69.0122 93.24C68.7722 94.12 68.6522 94.84 68.6522 95.4C68.6522 95.9867 68.7189 96.3467 68.8522 96.48H69.1722C69.8922 96.2133 70.5855 95.8 71.2522 95.24C71.9189 94.6533 72.5455 94 73.1322 93.28C73.7455 92.5333 74.3189 91.7467 74.8522 90.92C75.4122 90.0933 75.9189 89.2933 76.3722 88.52H76.3322C76.4655 88.3067 76.5989 88.1067 76.7322 87.92C76.8655 87.7067 76.9989 87.4933 77.1322 87.28C77.2122 87.1467 77.3589 87.08 77.5722 87.08C77.8122 87.0533 78.0389 87.08 78.2522 87.16C78.4655 87.24 78.6389 87.3467 78.7722 87.48C78.9055 87.6133 78.9322 87.7733 78.8522 87.96L77.8522 89.6C77.4522 90.24 77.0255 90.9067 76.5722 91.6C76.1455 92.2933 75.6789 92.9867 75.1722 93.68C74.6655 94.3467 74.1322 95 73.5722 95.64C73.0122 96.2533 72.4255 96.8133 71.8122 97.32C71.6255 97.48 71.3855 97.6667 71.0922 97.88C70.7989 98.0933 70.4522 98.2933 70.0522 98.48C69.6789 98.64 69.2522 98.7867 68.7722 98.92C68.2922 99.0267 67.7855 99.08 67.2522 99.08C66.1589 99.0267 65.3589 98.6533 64.8522 97.96C64.3722 97.2667 64.1322 96.4133 64.1322 95.4C64.1322 95.1867 64.1455 94.9333 64.1722 94.64C64.1989 94.3467 64.2389 94.08 64.2922 93.84C64.4789 92.64 64.7589 91.44 65.1322 90.24C65.5322 89.04 65.9722 87.8533 66.4522 86.68C66.9589 85.48 67.5055 84.2933 68.0922 83.12C68.6789 81.9467 69.2789 80.7733 69.8922 79.6L71.0522 77.28C70.4389 77.5467 69.8255 77.8267 69.2122 78.12C68.5989 78.3867 67.9855 78.6933 67.3722 79.04H67.2922ZM135.203 62.72C135.336 62.56 135.63 62.6 136.083 62.84C136.563 63.08 137.043 63.4 137.523 63.8C138.03 64.2 138.483 64.6133 138.883 65.04C139.283 65.4667 139.47 65.7733 139.443 65.96C138.776 67.32 138.083 68.8267 137.363 70.48C136.67 72.1067 135.936 73.8 135.163 75.56C133.963 78.3333 132.683 81.2267 131.323 84.24C129.99 87.2267 128.55 90.1733 127.003 93.08C125.483 95.96 123.843 98.6933 122.083 101.28C120.35 103.893 118.47 106.173 116.443 108.12C114.443 110.067 112.296 111.6 110.003 112.72C107.71 113.84 105.256 114.373 102.643 114.32C100.59 114.293 98.8165 114.04 97.3231 113.56C95.8298 113.107 94.5765 112.48 93.5631 111.68C92.5765 110.88 91.8431 109.96 91.3631 108.92C90.8831 107.88 90.6431 106.787 90.6431 105.64C90.6431 104.307 90.9631 102.947 91.6031 101.56C92.2165 100.2 93.1365 98.9333 94.3631 97.76C95.6165 96.56 97.1498 95.52 98.9631 94.64C100.776 93.76 102.87 93.1333 105.243 92.76L105.323 92.4C105.696 90.7733 106.376 88.9067 107.363 86.8C108.35 84.6933 109.523 82.48 110.883 80.16C112.27 77.8133 113.776 75.4 115.403 72.92C117.056 70.44 118.723 68.0133 120.403 65.64C120.563 65.4267 120.51 65.2 120.243 64.96C120.003 64.72 119.736 64.6267 119.443 64.68C117.496 64.8133 115.576 65.2 113.683 65.84C111.79 66.48 109.976 67.28 108.243 68.24C106.536 69.2 104.95 70.2933 103.483 71.52C102.043 72.72 100.79 73.9467 99.7231 75.2C98.6831 76.4533 97.8698 77.68 97.2831 78.88C96.6965 80.08 96.4298 81.1733 96.4831 82.16H96.3631C96.2298 82.32 95.8965 82.36 95.3631 82.28C94.8565 82.2 94.3231 82.0133 93.7631 81.72C93.2298 81.4 92.7765 80.9867 92.4031 80.48C92.0298 79.9467 91.9231 79.32 92.0831 78.6C92.5898 76.7067 93.4165 74.9733 94.5631 73.4C95.7098 71.8267 97.0431 70.4133 98.5631 69.16C100.083 67.9067 101.736 66.8133 103.523 65.88C105.31 64.92 107.11 64.1333 108.923 63.52C110.736 62.88 112.496 62.4133 114.203 62.12C115.91 61.8 117.443 61.64 118.803 61.64C119.15 61.64 119.47 61.64 119.763 61.64C120.056 61.64 120.35 61.6667 120.643 61.72H120.603C121.083 61.7733 121.576 61.9333 122.083 62.2C122.59 62.4667 123.043 62.7867 123.443 63.16C123.843 63.5067 124.163 63.88 124.403 64.28C124.67 64.6533 124.803 64.9867 124.803 65.28C124.803 65.44 124.683 65.76 124.443 66.24C124.23 66.72 123.923 67.3333 123.523 68.08C123.123 68.8267 122.643 69.68 122.083 70.64C121.523 71.5733 120.923 72.5867 120.283 73.68C119.403 75.1467 118.483 76.7067 117.523 78.36C116.563 80.0133 115.643 81.6667 114.763 83.32C113.883 84.9733 113.07 86.5867 112.323 88.16C111.603 89.7067 111.043 91.12 110.643 92.4C110.75 92.4 110.843 92.4133 110.923 92.44C111.03 92.44 111.123 92.44 111.203 92.44C111.39 92.4667 111.656 92.6133 112.003 92.88C112.376 93.12 112.71 93.4 113.003 93.72C113.296 94.04 113.51 94.3333 113.643 94.6C113.803 94.84 113.79 94.9733 113.603 95C112.99 94.8933 112.39 94.8133 111.803 94.76C111.216 94.7067 110.643 94.6533 110.083 94.6C110.056 94.8133 110.03 95.0133 110.003 95.2C110.003 95.36 110.003 95.52 110.003 95.68C110.003 96.4533 110.176 97.0133 110.523 97.36C110.87 97.7067 111.43 97.8133 112.203 97.68C113.483 97.3867 114.776 96.7333 116.083 95.72C117.39 94.7067 118.643 93.5333 119.843 92.2C121.07 90.8667 122.216 89.4533 123.283 87.96C124.35 86.44 125.283 85.04 126.083 83.76C126.723 82.4267 127.39 81 128.083 79.48C128.803 77.9333 129.496 76.4 130.163 74.88C130.856 73.3333 131.51 71.8533 132.123 70.44C132.736 69.0267 133.27 67.7733 133.723 66.68C134.176 65.56 134.523 64.6533 134.763 63.96C135.03 63.24 135.15 62.8267 135.123 62.72H135.203ZM110.323 99.8C109.47 99.8 108.723 99.6667 108.083 99.4C107.47 99.1333 106.95 98.7867 106.523 98.36C106.096 97.9067 105.763 97.3867 105.523 96.8C105.31 96.1867 105.176 95.5333 105.123 94.84C103.283 95.1333 101.683 95.6133 100.323 96.28C98.9631 96.9467 97.8298 97.7467 96.9231 98.68C96.0165 99.5867 95.3365 100.573 94.8831 101.64C94.4298 102.707 94.2031 103.773 94.2031 104.84C94.2031 105.747 94.3898 106.613 94.7631 107.44C95.1365 108.293 95.6698 109.04 96.3631 109.68C97.0565 110.347 97.9098 110.893 98.9231 111.32C99.9631 111.747 101.123 112.013 102.403 112.12C104.323 112.12 106.123 111.64 107.803 110.68C109.483 109.72 111.083 108.413 112.603 106.76C114.123 105.107 115.576 103.173 116.963 100.96C118.35 98.7733 119.71 96.44 121.043 93.96C119.656 95.2667 118.216 96.4267 116.723 97.44C115.256 98.4533 113.79 99.16 112.323 99.56C111.63 99.72 110.963 99.8 110.323 99.8ZM143.323 78.76C143.989 78.84 144.563 79 145.043 79.24C145.523 79.48 145.909 79.7733 146.203 80.12C146.523 80.4667 146.749 80.8533 146.883 81.28C147.043 81.7067 147.149 82.1333 147.203 82.56C147.709 83.12 148.029 83.8933 148.163 84.88C148.189 85.0667 148.203 85.2533 148.203 85.44C148.229 85.6267 148.243 85.8267 148.243 86.04C148.243 87.0267 148.096 88.0267 147.803 89.04C147.536 90.0533 147.149 91.04 146.643 92C146.136 92.96 145.536 93.8667 144.843 94.72C144.149 95.5467 143.389 96.28 142.563 96.92C141.763 97.56 140.909 98.0667 140.003 98.44C139.123 98.7867 138.216 98.96 137.283 98.96C135.656 98.9333 134.216 98.44 132.963 97.48C131.709 96.4933 130.856 95.1067 130.403 93.32C130.269 92.7333 130.203 92.1733 130.203 91.64C130.203 90.1733 130.576 88.6533 131.323 87.08C132.069 85.5067 133.056 84.08 134.283 82.8C135.536 81.52 136.936 80.4933 138.483 79.72C140.056 78.9467 141.669 78.6267 143.323 78.76ZM142.443 86.8C142.283 86.7467 142.149 86.6267 142.043 86.44C141.963 86.2267 141.896 85.9867 141.843 85.72C141.816 85.4533 141.803 85.1867 141.803 84.92C141.803 84.6533 141.803 84.4133 141.803 84.2C141.829 83.9867 141.949 83.7733 142.163 83.56C142.376 83.32 142.603 83.1067 142.843 82.92C143.109 82.7333 143.363 82.5733 143.603 82.44C143.869 82.28 144.043 82.1733 144.123 82.12C144.363 81.9867 144.589 81.9067 144.803 81.88C144.776 81.5067 144.656 81.1867 144.443 80.92C144.229 80.6533 143.816 80.5467 143.203 80.6C142.669 80.6533 142.016 80.88 141.243 81.28C140.496 81.68 139.789 82.2133 139.123 82.88H139.163C138.549 83.4933 137.989 84.2 137.483 85C137.003 85.7733 136.589 86.5867 136.243 87.44C135.896 88.2667 135.616 89.1067 135.403 89.96C135.216 90.8133 135.123 91.6133 135.123 92.36C135.123 93.48 135.336 94.4267 135.763 95.2C136.216 95.9733 136.936 96.3867 137.923 96.44C138.909 96.4933 139.883 96.1333 140.843 95.36C141.803 94.5867 142.656 93.6133 143.403 92.44C144.176 91.2667 144.789 90.0133 145.243 88.68C145.723 87.32 145.949 86.08 145.923 84.96C145.923 84.4267 145.869 84.1067 145.763 84C145.523 84 145.256 84.1067 144.963 84.32C144.669 84.5067 144.389 84.7467 144.123 85.04C143.856 85.3067 143.616 85.6 143.403 85.92C143.216 86.24 143.109 86.5333 143.083 86.8H142.443ZM164.311 78.92C164.631 78.76 165.044 78.7733 165.551 78.96C166.084 79.12 166.591 79.3733 167.071 79.72C167.551 80.04 167.938 80.44 168.231 80.92C168.524 81.3733 168.591 81.8267 168.431 82.28C168.351 82.4933 168.218 82.7867 168.031 83.16C167.871 83.5333 167.671 83.9733 167.431 84.48C167.058 85.28 166.644 86.2 166.191 87.24C165.738 88.2533 165.311 89.2667 164.911 90.28C164.511 91.2933 164.164 92.2533 163.871 93.16C163.604 94.0667 163.471 94.8133 163.471 95.4C163.471 96.12 163.551 96.48 163.711 96.48H164.071C164.791 96.24 165.484 95.8267 166.151 95.24C166.844 94.6267 167.498 93.9467 168.111 93.2C168.751 92.4267 169.338 91.6133 169.871 90.76C170.431 89.9067 170.938 89.0933 171.391 88.32L171.991 87.28C172.124 87.0667 172.324 86.9333 172.591 86.88C172.858 86.8267 173.098 86.84 173.311 86.92C173.551 86.9733 173.724 87.0933 173.831 87.28C173.938 87.4667 173.911 87.6933 173.751 87.96L172.791 89.48C171.964 90.8133 171.058 92.1733 170.071 93.56C169.111 94.9467 167.991 96.2 166.711 97.32C166.524 97.48 166.284 97.6667 165.991 97.88C165.698 98.0933 165.351 98.2933 164.951 98.48C164.578 98.64 164.151 98.7867 163.671 98.92C163.191 99.0267 162.684 99.08 162.151 99.08C161.084 99.0267 160.284 98.6533 159.751 97.96C159.244 97.2667 158.991 96.4133 158.991 95.4C158.991 94.9467 159.031 94.4933 159.111 94.04C158.631 94.6533 158.138 95.24 157.631 95.8C157.124 96.36 156.591 96.8667 156.031 97.32C155.844 97.48 155.604 97.6667 155.311 97.88C155.018 98.0933 154.671 98.2933 154.271 98.48C153.898 98.64 153.471 98.7867 152.991 98.92C152.511 99.0267 152.004 99.08 151.471 99.08C150.431 99.0267 149.644 98.6667 149.111 98C148.604 97.3067 148.351 96.4533 148.351 95.44C148.351 94.88 148.404 94.3467 148.511 93.84C148.618 93.36 148.764 92.8 148.951 92.16C149.138 91.4933 149.351 90.7867 149.591 90.04C149.858 89.2933 150.124 88.52 150.391 87.72C150.684 86.92 150.978 86.1333 151.271 85.36C151.671 84.24 152.058 83.1467 152.431 82.08C152.804 80.9867 153.124 79.9333 153.391 78.92H153.671C153.991 78.76 154.404 78.7733 154.911 78.96C155.444 79.12 155.938 79.3733 156.391 79.72C156.871 80.04 157.258 80.44 157.551 80.92C157.844 81.3733 157.911 81.8267 157.751 82.28L156.671 84.68C156.298 85.48 155.884 86.3867 155.431 87.4C155.004 88.3867 154.591 89.3867 154.191 90.4C153.818 91.3867 153.498 92.3333 153.231 93.24C152.964 94.12 152.831 94.84 152.831 95.4C152.831 96.12 152.911 96.48 153.071 96.48H153.391C154.111 96.2133 154.804 95.8 155.471 95.24C156.138 94.6533 156.764 94 157.351 93.28C157.964 92.5333 158.538 91.7467 159.071 90.92C159.631 90.0933 160.138 89.2933 160.591 88.52H160.551C160.604 88.3867 160.671 88.2667 160.751 88.16C160.858 88.0533 160.951 87.9333 161.031 87.8C161.164 87.4267 161.298 87.0533 161.431 86.68C161.564 86.3067 161.698 85.9333 161.831 85.56C162.258 84.4133 162.658 83.28 163.031 82.16C163.431 81.0133 163.764 79.9333 164.031 78.92H164.311ZM186.795 92.16C186.235 92.96 185.582 93.7733 184.835 94.6C184.115 95.4267 183.329 96.1733 182.475 96.84C181.622 97.5067 180.702 98.0533 179.715 98.48C178.729 98.88 177.702 99.0533 176.635 99C175.462 98.9467 174.595 98.5733 174.035 97.88C173.475 97.1867 173.209 96.3867 173.235 95.48C173.262 94.8133 173.395 94.16 173.635 93.52C173.875 92.88 174.155 92.2533 174.475 91.64C174.822 91 175.209 90.3867 175.635 89.8C176.062 89.1867 176.489 88.5867 176.915 88C177.022 87.8667 177.142 87.6933 177.275 87.48C177.409 87.2667 177.542 87.0933 177.675 86.96L178.595 85.72C179.075 85.0533 179.515 84.48 179.915 84C180.315 83.4933 180.582 83.2 180.715 83.12C180.395 83.1733 180.102 83.2267 179.835 83.28C179.595 83.3333 179.355 83.4 179.115 83.48C178.822 83.56 178.515 83.6267 178.195 83.68C177.902 83.7333 177.502 83.7467 176.995 83.72H176.515C175.929 84.52 175.355 85.36 174.795 86.24C174.235 87.0933 173.715 87.92 173.235 88.72C173.129 88.8533 172.955 88.92 172.715 88.92C172.502 88.92 172.289 88.8933 172.075 88.84C171.862 88.76 171.689 88.6533 171.555 88.52C171.449 88.3867 171.462 88.2267 171.595 88.04C171.809 87.6933 172.035 87.32 172.275 86.92C172.515 86.52 172.742 86.1467 172.955 85.8C173.195 85.4 173.449 84.9867 173.715 84.56C174.009 84.1067 174.302 83.6533 174.595 83.2C174.195 82.9067 173.995 82.5067 173.995 82C173.995 81.7067 174.062 81.3733 174.195 81C174.329 80.6 174.489 80.2 174.675 79.8C174.889 79.4 175.115 79 175.355 78.6C175.595 78.1733 175.835 77.7733 176.075 77.4C176.289 77.08 176.475 76.7467 176.635 76.4C176.822 76.0533 176.982 75.6933 177.115 75.32C177.835 75.6133 178.515 75.9867 179.155 76.44C179.822 76.8667 180.155 77.4 180.155 78.04C180.155 78.3333 180.062 78.7067 179.875 79.16L178.075 81.76C177.969 81.92 178.035 81.9733 178.275 81.92C178.542 81.8667 178.915 81.76 179.395 81.6C179.875 81.4133 180.409 81.2 180.995 80.96C181.609 80.6933 182.182 80.4267 182.715 80.16C183.275 79.8933 183.769 79.64 184.195 79.4C184.649 79.1333 184.942 78.92 185.075 78.76C185.235 78.76 185.435 78.8133 185.675 78.92C185.915 79.0267 186.155 79.1467 186.395 79.28C186.635 79.4133 186.849 79.5467 187.035 79.68C187.222 79.8133 187.329 79.8933 187.355 79.92C187.569 80.2133 187.609 80.6 187.475 81.08C187.342 81.56 187.089 82.1067 186.715 82.72C186.342 83.3067 185.875 83.96 185.315 84.68C184.782 85.3733 184.222 86.0933 183.635 86.84C183.289 87.2933 182.942 87.7467 182.595 88.2C182.249 88.6267 181.902 89.0667 181.555 89.52C181.289 89.84 180.995 90.2267 180.675 90.68C180.355 91.1333 180.049 91.6133 179.755 92.12C179.462 92.6 179.209 93.08 178.995 93.56C178.809 94.04 178.715 94.48 178.715 94.88C178.715 95.5467 178.969 95.8933 179.475 95.92C179.769 95.92 180.142 95.8133 180.595 95.6C181.049 95.36 181.529 95.04 182.035 94.64C182.542 94.2133 183.062 93.7333 183.595 93.2C184.129 92.64 184.622 92.04 185.075 91.4C185.555 90.68 186.022 89.9467 186.475 89.2C186.955 88.4267 187.342 87.7867 187.635 87.28C187.742 87.1467 187.902 87.08 188.115 87.08C188.355 87.0533 188.582 87.08 188.795 87.16C189.009 87.24 189.182 87.3467 189.315 87.48C189.449 87.6133 189.462 87.7733 189.355 87.96C189.169 88.2533 188.982 88.56 188.795 88.88C188.635 89.1733 188.462 89.4667 188.275 89.76C188.035 90.1867 187.795 90.6 187.555 91C187.315 91.4 187.062 91.7867 186.795 92.16ZM39.8128 136.76C39.8928 137 39.7995 137.16 39.5328 137.24C39.2928 137.293 38.9861 137.28 38.6128 137.2C38.2661 137.12 37.9061 137 37.5328 136.84C37.1595 136.68 36.8795 136.507 36.6928 136.32C36.3461 135.787 36.1728 135.133 36.1728 134.36C36.1728 133.8 36.2528 133.213 36.4128 132.6C36.5995 131.987 36.8261 131.387 37.0928 130.8C37.3861 130.213 37.6928 129.68 38.0128 129.2C38.3595 128.693 38.6928 128.28 39.0128 127.96H38.9728C40.3861 126.493 41.9328 125.28 43.6128 124.32C45.3195 123.333 47.1328 122.493 49.0528 121.8C49.7195 120.413 50.3995 119.053 51.0928 117.72C51.8128 116.36 52.5328 115.013 53.2528 113.68C53.7328 112.773 54.1995 111.893 54.6528 111.04C55.1328 110.16 55.5861 109.293 56.0128 108.44C55.0528 108.6 54.0928 108.787 53.1328 109C52.1995 109.187 51.2661 109.4 50.3328 109.64C49.3195 109.933 48.1328 110.373 46.7728 110.96C45.4128 111.547 44.1195 112.253 42.8928 113.08C41.6661 113.907 40.6261 114.827 39.7728 115.84C38.9195 116.827 38.4928 117.88 38.4928 119C38.4928 119.773 38.6928 120.547 39.0928 121.32C39.5195 122.093 40.2395 122.853 41.2528 123.6H41.4128C41.4661 123.733 41.3195 123.84 40.9728 123.92C40.6261 124 40.1861 124.04 39.6528 124.04C38.9595 124.04 38.1861 123.933 37.3328 123.72C36.5061 123.48 35.8261 123.08 35.2928 122.52C34.9995 121.987 34.7595 121.48 34.5728 121C34.3861 120.493 34.2928 119.96 34.2928 119.4C34.2928 118.68 34.4528 117.733 34.7728 116.56C35.2795 114.72 36.2661 113.107 37.7328 111.72C39.1995 110.333 40.9595 109.147 43.0128 108.16C45.0928 107.147 47.3728 106.307 49.8528 105.64C52.3328 104.947 54.8528 104.373 57.4128 103.92C59.9728 103.467 62.4795 103.107 64.9328 102.84C67.3861 102.547 69.6261 102.293 71.6528 102.08C73.4395 101.893 74.9995 101.72 76.3328 101.56C77.6661 101.373 78.7595 101.12 79.6128 100.8C79.7195 101.173 79.7328 101.653 79.6528 102.24C79.5995 102.8 79.4795 103.36 79.2928 103.92C79.1061 104.48 78.8928 104.973 78.6528 105.4C78.4128 105.8 78.1861 106.027 77.9728 106.08L72.6128 106.52C70.1061 106.733 67.5595 106.973 64.9728 107.24C62.3861 107.48 59.7995 107.813 57.2128 108.24C57.5328 108.4 57.8928 108.627 58.2928 108.92C58.6928 109.187 59.0528 109.467 59.3728 109.76C59.6928 110.053 59.9461 110.347 60.1328 110.64C60.3195 110.907 60.3861 111.12 60.3328 111.28C59.7195 112.747 59.0128 114.213 58.2128 115.68C57.4395 117.12 56.6261 118.56 55.7728 120C57.0795 119.733 58.3995 119.493 59.7328 119.28C61.0661 119.067 62.3995 118.853 63.7328 118.64C64.8261 118.48 65.9195 118.307 67.0128 118.12C68.1328 117.933 69.2128 117.733 70.2528 117.52C70.4128 117.573 70.4395 117.8 70.3328 118.2C70.2261 118.6 70.0528 119.04 69.8128 119.52C69.5995 119.973 69.3461 120.4 69.0528 120.8C68.7861 121.173 68.5595 121.373 68.3728 121.4L66.4528 121.52C64.6661 121.653 62.6795 121.84 60.4928 122.08C58.3328 122.32 56.1195 122.693 53.8528 123.2C53.2661 124.213 52.7061 125.253 52.1728 126.32C51.6395 127.36 51.1461 128.44 50.6928 129.56C50.2661 130.653 49.8928 131.8 49.5728 133C49.2795 134.2 49.0795 135.453 48.9728 136.76C48.9195 137.373 48.9861 137.893 49.1728 138.32C49.3595 138.747 49.6261 139.093 49.9728 139.36C50.3461 139.627 50.7995 139.813 51.3328 139.92C51.8661 140.053 52.4395 140.12 53.0528 140.12C53.9595 140.12 54.9461 140.027 56.0128 139.84C57.0795 139.653 58.1195 139.413 59.1328 139.12C60.1728 138.827 61.1461 138.507 62.0528 138.16C62.9861 137.787 63.7595 137.427 64.3728 137.08H64.3328C64.8395 136.733 65.2128 136.733 65.4528 137.08C65.6928 137.4 65.8128 137.88 65.8128 138.52C65.8128 139.08 65.7061 139.667 65.4928 140.28C65.2795 140.893 64.9595 141.32 64.5328 141.56C63.9195 141.853 63.2261 142.12 62.4528 142.36C61.7061 142.627 60.8928 142.84 60.0128 143C59.1328 143.187 58.2128 143.333 57.2528 143.44C56.3195 143.547 55.3861 143.6 54.4528 143.6C53.1728 143.6 51.9328 143.493 50.7328 143.28C49.5595 143.067 48.5195 142.707 47.6128 142.2C46.7061 141.72 45.9861 141.08 45.4528 140.28C44.9195 139.507 44.6528 138.547 44.6528 137.4C44.6795 135.347 44.9595 133.307 45.4928 131.28C46.0261 129.227 46.7195 127.173 47.5728 125.12C46.2661 125.653 45.0395 126.28 43.8928 127C42.7461 127.693 41.7061 128.507 40.7728 129.44C40.5861 129.653 40.3728 129.933 40.1328 130.28C39.9195 130.6 39.7195 130.973 39.5328 131.4C39.3461 131.8 39.1861 132.253 39.0528 132.76C38.9195 133.267 38.8528 133.773 38.8528 134.28C38.8528 134.76 38.9195 135.213 39.0528 135.64C39.1861 136.067 39.3995 136.44 39.6928 136.76H39.8128ZM90.5138 131.44C90.1404 132.027 89.6338 132.76 88.9938 133.64C88.3538 134.493 87.6338 135.32 86.8338 136.12C86.0338 136.92 85.1804 137.613 84.2738 138.2C83.3938 138.76 82.5004 139.04 81.5938 139.04C81.0604 139.04 80.5538 138.96 80.0738 138.8C79.5938 138.64 79.1671 138.4 78.7938 138.08C78.4204 137.76 78.1271 137.347 77.9138 136.84C77.7004 136.333 77.6071 135.733 77.6338 135.04C77.6604 134.373 77.7538 133.707 77.9138 133.04C78.0738 132.373 78.2871 131.667 78.5538 130.92C78.8204 130.147 79.1271 129.307 79.4738 128.4C79.8471 127.493 80.2738 126.48 80.7538 125.36C80.9671 124.827 81.1404 124.333 81.2738 123.88C81.4338 123.4 81.5138 122.973 81.5138 122.6C81.5138 122.333 81.3404 122.253 80.9938 122.36C80.6738 122.44 80.1271 122.827 79.3538 123.52C78.4204 124.347 77.5671 125.187 76.7938 126.04C76.0204 126.867 75.2204 127.787 74.3938 128.8C73.7004 130.373 73.1138 131.987 72.6338 133.64C72.1538 135.293 71.8471 137 71.7138 138.76C71.6871 139 71.4738 139.093 71.0738 139.04C70.6738 138.987 70.2471 138.867 69.7938 138.68C69.3404 138.467 68.9138 138.213 68.5137 137.92C68.1137 137.627 67.9004 137.347 67.8737 137.08C67.9804 135.08 68.3537 133.107 68.9938 131.16C69.6604 129.187 70.3671 127.2 71.1138 125.2C71.4871 124.267 71.8471 123.307 72.1938 122.32C72.5671 121.333 72.9138 120.253 73.2338 119.08C73.5538 118.92 73.9938 118.92 74.5538 119.08C75.1138 119.213 75.6471 119.44 76.1538 119.76C76.6604 120.08 77.0738 120.467 77.3938 120.92C77.7138 121.373 77.7938 121.827 77.6338 122.28H77.6738C77.6738 122.333 77.6604 122.373 77.6338 122.4C78.6204 121.467 79.6738 120.68 80.7938 120.04C81.9138 119.373 83.0871 119 84.3138 118.92C84.6338 118.92 84.9804 119.04 85.3538 119.28C85.7271 119.493 86.0604 119.773 86.3538 120.12C86.6738 120.44 86.9138 120.787 87.0738 121.16C87.2604 121.533 87.3138 121.867 87.2338 122.16C86.7804 123.387 86.3138 124.547 85.8338 125.64C85.3804 126.707 84.9804 127.627 84.6338 128.4C84.3404 129.093 84.0604 129.733 83.7938 130.32C83.5538 130.907 83.3271 131.493 83.1138 132.08C82.9271 132.64 82.7671 133.227 82.6338 133.84C82.5271 134.453 82.4471 135.133 82.3938 135.88C82.3671 136.013 82.3938 136.147 82.4738 136.28C82.5804 136.413 82.7804 136.44 83.0738 136.36C83.7671 136.013 84.6338 135.387 85.6738 134.48C86.7138 133.547 87.7671 132.28 88.8338 130.68C89.3404 129.933 89.8204 129.173 90.2738 128.4L90.9138 127.28C90.9938 127.147 91.1404 127.08 91.3538 127.08C91.5938 127.053 91.8204 127.08 92.0338 127.16C92.2471 127.24 92.4204 127.347 92.5538 127.48C92.6871 127.613 92.7004 127.773 92.5938 127.96L90.5138 131.44ZM99.1834 144.16C99.5301 144.32 99.8501 144.48 100.143 144.64C100.463 144.827 100.783 145.013 101.103 145.2C101.983 145.707 102.917 146.2 103.903 146.68C104.89 147.187 105.917 147.627 106.983 148C107.117 148.053 107.103 148.213 106.943 148.48C106.783 148.747 106.53 149.027 106.183 149.32C105.863 149.613 105.463 149.88 104.983 150.12C104.53 150.36 104.05 150.48 103.543 150.48C102.903 150.48 102.383 150.36 101.983 150.12L99.5034 148.56H99.5434L97.2234 147.12C96.4501 148.16 95.6501 149.12 94.8234 150C93.9968 150.907 93.0901 151.68 92.1034 152.32C91.1168 152.987 90.0368 153.507 88.8634 153.88C87.6901 154.253 86.3701 154.453 84.9034 154.48C84.0768 154.48 83.2501 154.413 82.4234 154.28C81.5968 154.147 80.8501 153.893 80.1834 153.52C79.5168 153.173 78.9701 152.693 78.5434 152.08C78.0901 151.467 77.8368 150.693 77.7834 149.76C77.7301 148.587 77.9968 147.493 78.5834 146.48C79.1701 145.493 79.9834 144.627 81.0234 143.88C82.0368 143.16 83.2101 142.587 84.5434 142.16C85.8768 141.76 87.2501 141.56 88.6634 141.56C89.4634 141.56 90.1701 141.587 90.7834 141.64C91.4234 141.693 92.0101 141.76 92.5434 141.84C93.1034 141.947 93.6234 142.067 94.1034 142.2C94.5834 142.333 95.0768 142.48 95.5834 142.64L97.3034 138.96L98.2634 136.76C97.4901 137.373 96.7034 137.88 95.9034 138.28C95.1301 138.68 94.3434 138.88 93.5434 138.88C92.5834 138.8 91.7701 138.573 91.1034 138.2C90.4634 137.827 89.9568 137.4 89.5834 136.92C89.2101 136.413 88.9434 135.88 88.7834 135.32C88.6234 134.733 88.5434 134.173 88.5434 133.64C88.5434 133.427 88.5568 133.213 88.5834 133C88.5834 132.787 88.5968 132.6 88.6234 132.44C88.7301 131.587 88.9834 130.653 89.3834 129.64C89.8101 128.627 90.3301 127.613 90.9434 126.6C91.5834 125.587 92.3168 124.613 93.1434 123.68C93.9968 122.72 94.9168 121.88 95.9034 121.16C96.8901 120.413 97.9168 119.827 98.9834 119.4C100.077 118.947 101.197 118.72 102.343 118.72C103.063 118.72 103.743 118.8 104.383 118.96C104.97 119.12 105.45 119.387 105.823 119.76C106.223 120.133 106.53 120.573 106.743 121.08C106.957 121.56 107.09 122.08 107.143 122.64C107.223 123.2 107.25 123.76 107.223 124.32C107.223 124.507 107.103 124.653 106.863 124.76C106.65 124.867 106.41 124.933 106.143 124.96C105.877 124.96 105.637 124.907 105.423 124.8C105.21 124.693 105.103 124.533 105.103 124.32C105.103 124.213 105.09 124.12 105.063 124.04C105.037 123.933 105.023 123.827 105.023 123.72C104.997 123.427 104.957 123.107 104.903 122.76C104.85 122.387 104.757 122.053 104.623 121.76C104.49 121.44 104.29 121.173 104.023 120.96C103.783 120.747 103.463 120.627 103.063 120.6C102.37 120.573 101.69 120.733 101.023 121.08C100.383 121.4 99.7568 121.84 99.1434 122.4C98.5301 122.96 97.9568 123.6 97.4234 124.32C96.8901 125.04 96.3968 125.8 95.9434 126.6C95.5168 127.373 95.1434 128.16 94.8234 128.96C94.5034 129.733 94.2501 130.453 94.0634 131.12C93.9834 131.44 93.9034 131.813 93.8234 132.24C93.7434 132.667 93.7034 133.093 93.7034 133.52C93.7034 133.893 93.7301 134.253 93.7834 134.6C93.8634 134.92 93.9968 135.2 94.1834 135.44C94.3701 135.68 94.6101 135.853 94.9034 135.96C95.1968 136.04 95.5834 136.027 96.0634 135.92C96.3834 135.84 96.7701 135.613 97.2234 135.24C97.6768 134.867 98.1434 134.427 98.6234 133.92C99.1301 133.387 99.6234 132.813 100.103 132.2C100.61 131.587 101.063 131 101.463 130.44C101.677 129.987 101.89 129.52 102.103 129.04C102.317 128.56 102.517 128.093 102.703 127.64C102.89 127.16 103.037 126.707 103.143 126.28C103.277 125.853 103.357 125.467 103.383 125.12C103.703 124.96 104.157 124.96 104.743 125.12C105.357 125.28 105.943 125.52 106.503 125.84C107.063 126.16 107.53 126.547 107.903 127C108.277 127.427 108.383 127.853 108.223 128.28L99.1834 144.16ZM86.9434 152.84C88.3834 152.2 89.6768 151.213 90.8234 149.88C91.9968 148.547 93.0768 147.053 94.0634 145.4C93.2101 145.027 92.3568 144.733 91.5034 144.52C90.6501 144.333 89.7168 144.227 88.7034 144.2C87.7701 144.173 86.7968 144.267 85.7834 144.48C84.7434 144.693 83.7968 145.027 82.9434 145.48C82.0901 145.933 81.3834 146.507 80.8234 147.2C80.2634 147.893 79.9968 148.707 80.0234 149.64C80.0501 150.307 80.1968 150.867 80.4634 151.32C80.7034 151.8 81.0234 152.187 81.4234 152.48C81.8234 152.773 82.2768 152.987 82.7834 153.12C83.2901 153.253 83.8101 153.32 84.3434 153.32C84.7701 153.32 85.2101 153.267 85.6634 153.16C86.1168 153.08 86.5434 152.973 86.9434 152.84ZM119.507 119.44C119.267 119.893 118.934 120.533 118.507 121.36C118.107 122.16 117.667 123.067 117.187 124.08C116.707 125.067 116.214 126.107 115.707 127.2C115.227 128.293 114.787 129.36 114.387 130.4C113.987 131.413 113.654 132.36 113.387 133.24C113.147 134.12 113.027 134.84 113.027 135.4C113.027 135.987 113.094 136.347 113.227 136.48H113.547C114.267 136.213 114.961 135.8 115.627 135.24C116.294 134.653 116.921 134 117.507 133.28C118.121 132.533 118.694 131.747 119.227 130.92C119.787 130.093 120.294 129.293 120.747 128.52H120.707C120.841 128.307 120.974 128.107 121.107 127.92C121.241 127.707 121.374 127.493 121.507 127.28C121.587 127.147 121.734 127.08 121.947 127.08C122.187 127.053 122.414 127.08 122.627 127.16C122.841 127.24 123.014 127.347 123.147 127.48C123.281 127.613 123.307 127.773 123.227 127.96L122.227 129.6C121.827 130.24 121.401 130.907 120.947 131.6C120.521 132.293 120.054 132.987 119.547 133.68C119.041 134.347 118.507 135 117.947 135.64C117.387 136.253 116.801 136.813 116.187 137.32C116.001 137.48 115.761 137.667 115.467 137.88C115.174 138.093 114.827 138.293 114.427 138.48C114.054 138.64 113.627 138.787 113.147 138.92C112.667 139.027 112.161 139.08 111.627 139.08C110.534 139.027 109.734 138.653 109.227 137.96C108.747 137.267 108.507 136.413 108.507 135.4C108.507 135.187 108.521 134.933 108.547 134.64C108.574 134.347 108.614 134.08 108.667 133.84C109.041 131.547 109.721 129.267 110.707 127C111.721 124.733 112.801 122.48 113.947 120.24L115.507 117.16C116.387 115.347 117.214 113.52 117.987 111.68C118.761 109.84 119.334 108.227 119.707 106.84C120.027 106.68 120.467 106.667 121.027 106.8C121.587 106.933 122.121 107.16 122.627 107.48C123.134 107.8 123.547 108.187 123.867 108.64C124.187 109.093 124.267 109.547 124.107 110C124.001 110.293 123.787 110.773 123.467 111.44C123.174 112.08 122.814 112.827 122.387 113.68C121.987 114.507 121.547 115.387 121.067 116.32C120.614 117.253 120.174 118.133 119.747 118.96L119.507 119.44ZM125.289 118.92C125.583 118.787 125.956 118.787 126.409 118.92C126.889 119.053 127.343 119.28 127.769 119.6C128.196 119.893 128.543 120.267 128.809 120.72C129.103 121.147 129.209 121.573 129.129 122L127.689 124.64C127.289 125.333 126.849 126.107 126.369 126.96C125.889 127.813 125.423 128.68 124.969 129.56C124.516 130.413 124.089 131.253 123.689 132.08C123.289 132.907 122.969 133.653 122.729 134.32C122.516 134.96 122.396 135.48 122.369 135.88C122.369 136.28 122.529 136.48 122.849 136.48H123.169C123.916 136.213 124.649 135.8 125.369 135.24C126.116 134.653 126.823 133.987 127.489 133.24C128.183 132.493 128.836 131.72 129.449 130.92C130.089 130.093 130.676 129.307 131.209 128.56L131.809 127.72C131.916 127.587 132.089 127.52 132.329 127.52C132.569 127.493 132.783 127.52 132.969 127.6C133.183 127.653 133.343 127.76 133.449 127.92C133.556 128.053 133.529 128.213 133.369 128.4H133.409C132.343 130.053 131.196 131.627 129.969 133.12C128.743 134.613 127.303 136.013 125.649 137.32C125.436 137.48 125.169 137.667 124.849 137.88C124.529 138.093 124.169 138.293 123.769 138.48C123.369 138.64 122.929 138.787 122.449 138.92C121.996 139.027 121.529 139.08 121.049 139.08C120.089 139.053 119.383 138.76 118.929 138.2C118.476 137.613 118.249 136.907 118.249 136.08C118.249 135.413 118.383 134.667 118.649 133.84H118.609C118.743 133.333 118.943 132.747 119.209 132.08C119.476 131.387 119.769 130.653 120.089 129.88C120.436 129.107 120.796 128.307 121.169 127.48C121.569 126.653 121.969 125.827 122.369 125C122.903 123.853 123.409 122.76 123.889 121.72C124.369 120.68 124.756 119.747 125.049 118.92H125.289ZM129.049 122.28L129.129 122C129.343 121.627 129.449 121.427 129.449 121.4C129.476 121.347 129.343 121.64 129.049 122.28ZM129.249 107.88C129.543 107.827 129.916 107.947 130.369 108.24C130.849 108.533 131.303 108.893 131.729 109.32C132.183 109.72 132.556 110.133 132.849 110.56C133.169 110.96 133.329 111.24 133.329 111.4C133.223 111.827 133.023 112.32 132.729 112.88C132.463 113.44 132.183 114 131.889 114.56C131.623 115.093 131.369 115.627 131.129 116.16C130.889 116.667 130.676 117.24 130.489 117.88C130.196 117.827 129.863 117.693 129.489 117.48C129.143 117.24 128.809 116.973 128.489 116.68C128.196 116.387 127.943 116.093 127.729 115.8C127.516 115.507 127.409 115.267 127.409 115.08C127.436 114.627 127.503 114.133 127.609 113.6C127.743 113.04 127.889 112.453 128.049 111.84C128.236 111.173 128.396 110.507 128.529 109.84C128.689 109.147 128.796 108.493 128.849 107.88H129.249ZM127.877 134.4C127.877 133.547 128.104 132.707 128.557 131.88C129.011 131.027 129.584 130.333 130.277 129.8C130.437 129.533 130.611 129.267 130.797 129C131.011 128.707 131.184 128.427 131.317 128.16C132.011 127.04 132.717 125.933 133.437 124.84C134.184 123.72 134.984 122.6 135.837 121.48C135.997 121.267 136.144 121.067 136.277 120.88C136.411 120.693 136.544 120.493 136.677 120.28C137.104 119.667 137.597 119.013 138.157 118.32C138.717 117.627 139.531 116.813 140.597 115.88C140.917 116.013 141.317 116.213 141.797 116.48C142.277 116.747 142.704 117.04 143.077 117.36C143.477 117.653 143.771 117.96 143.957 118.28C144.144 118.573 144.104 118.813 143.837 119H143.877C143.504 119.347 143.211 119.653 142.997 119.92C142.811 120.187 142.571 120.533 142.277 120.96L141.797 121.68C141.237 122.56 140.851 123.507 140.637 124.52C140.451 125.533 140.357 126.56 140.357 127.6C140.357 128.133 140.371 128.667 140.397 129.2C140.424 129.733 140.464 130.267 140.517 130.8L140.637 132.96C140.664 133.92 140.517 134.813 140.197 135.64C139.877 136.44 139.411 137.12 138.797 137.68C138.184 138.24 137.451 138.667 136.597 138.96C135.744 139.227 134.824 139.333 133.837 139.28C131.784 139.12 130.277 138.573 129.317 137.64C128.357 136.68 127.877 135.6 127.877 134.4ZM135.637 127.64C135.637 127.16 135.664 126.68 135.717 126.2C135.771 125.693 135.864 125.173 135.997 124.64C135.624 125.173 135.251 125.733 134.877 126.32C134.504 126.907 134.144 127.48 133.797 128.04L133.157 129.04C133.611 129.12 134.037 129.253 134.437 129.44C134.517 129.52 134.624 129.72 134.757 130.04C134.891 130.36 135.011 130.707 135.117 131.08C135.251 131.453 135.331 131.813 135.357 132.16C135.411 132.48 135.371 132.707 135.237 132.84C134.597 132.307 134.037 132.04 133.557 132.04C133.211 132.04 132.851 132.107 132.477 132.24C132.131 132.373 131.811 132.56 131.517 132.8C131.251 133.013 131.024 133.28 130.837 133.6C130.677 133.92 130.597 134.28 130.597 134.68C130.597 134.92 130.624 135.16 130.677 135.4C130.757 135.64 130.851 135.853 130.957 136.04C131.277 136.573 131.664 136.973 132.117 137.24C132.571 137.48 132.984 137.613 133.357 137.64C133.837 137.693 134.251 137.613 134.597 137.4C134.944 137.187 135.224 136.907 135.437 136.56C135.651 136.187 135.811 135.76 135.917 135.28C136.024 134.773 136.077 134.253 136.077 133.72C136.077 133.267 136.051 132.8 135.997 132.32C135.971 131.84 135.931 131.36 135.877 130.88C135.824 130.373 135.771 129.84 135.717 129.28C135.664 128.72 135.637 128.173 135.637 127.64ZM165.358 131.44C164.984 132.027 164.478 132.76 163.838 133.64C163.198 134.493 162.478 135.32 161.678 136.12C160.878 136.92 160.024 137.613 159.118 138.2C158.238 138.76 157.344 139.04 156.438 139.04C155.904 139.04 155.398 138.96 154.918 138.8C154.438 138.64 154.011 138.4 153.638 138.08C153.264 137.76 152.971 137.347 152.758 136.84C152.544 136.333 152.451 135.733 152.478 135.04C152.504 134.373 152.598 133.707 152.758 133.04C152.918 132.373 153.131 131.667 153.398 130.92C153.664 130.147 153.971 129.307 154.318 128.4C154.691 127.493 155.118 126.48 155.598 125.36C155.811 124.827 155.984 124.333 156.118 123.88C156.278 123.4 156.358 122.973 156.358 122.6C156.358 122.333 156.184 122.253 155.838 122.36C155.518 122.44 154.971 122.827 154.198 123.52C153.264 124.32 152.411 125.133 151.638 125.96C150.864 126.787 150.078 127.707 149.278 128.72C148.584 130.32 147.984 131.947 147.478 133.6C146.998 135.253 146.691 136.973 146.558 138.76C146.531 139 146.318 139.093 145.918 139.04C145.518 138.987 145.091 138.867 144.638 138.68C144.184 138.467 143.758 138.213 143.357 137.92C142.957 137.627 142.744 137.347 142.717 137.08C142.797 135.693 143.024 134.28 143.397 132.84C143.771 131.373 144.238 129.907 144.798 128.44C145.384 126.947 146.038 125.453 146.758 123.96C147.478 122.467 148.198 120.987 148.918 119.52L150.078 117.16C150.958 115.347 151.784 113.52 152.558 111.68C153.331 109.84 153.904 108.227 154.278 106.84C154.624 106.68 155.064 106.667 155.598 106.8C156.158 106.933 156.678 107.16 157.158 107.48C157.664 107.8 158.078 108.187 158.398 108.64C158.718 109.093 158.811 109.547 158.678 110C158.544 110.347 158.318 110.853 157.998 111.52C157.678 112.187 157.318 112.933 156.918 113.76C156.518 114.587 156.091 115.453 155.638 116.36C155.184 117.267 154.744 118.133 154.318 118.96L152.598 122.2L152.478 122.4C153.464 121.467 154.518 120.68 155.638 120.04C156.758 119.373 157.931 119 159.158 118.92C159.478 118.92 159.824 119.04 160.198 119.28C160.571 119.493 160.904 119.773 161.198 120.12C161.518 120.44 161.758 120.787 161.918 121.16C162.104 121.533 162.158 121.867 162.078 122.16C161.624 123.387 161.158 124.547 160.678 125.64C160.224 126.707 159.824 127.627 159.478 128.4C159.184 129.093 158.904 129.733 158.638 130.32C158.398 130.907 158.171 131.493 157.958 132.08C157.771 132.64 157.611 133.227 157.478 133.84C157.371 134.453 157.291 135.133 157.238 135.88C157.211 136.013 157.238 136.147 157.318 136.28C157.424 136.413 157.624 136.44 157.918 136.36C158.611 136.013 159.478 135.387 160.518 134.48C161.558 133.547 162.611 132.28 163.678 130.68C164.184 129.933 164.664 129.173 165.118 128.4L165.758 127.28C165.838 127.147 165.984 127.08 166.198 127.08C166.438 127.053 166.664 127.08 166.878 127.16C167.091 127.24 167.264 127.347 167.398 127.48C167.531 127.613 167.544 127.773 167.438 127.96L165.358 131.44Z" fill="white"/>
</g>
<defs>
<filter id="filter0_d_68_8" x="7.69873" y="55.1201" width="187.817" height="105.36" filterUnits="userSpaceOnUse" color-interpolation-filters="sRGB">
<feFlood flood-opacity="0" result="BackgroundImageFix"/>
<feColorMatrix in="SourceAlpha" type="matrix" values="0 0 0 0 0 0 0 0 0 0 0 0 0 0 0 0 0 0 127 0" result="hardAlpha"/>
<feOffset/>
<feGaussianBlur stdDeviation="3"/>
<feComposite in2="hardAlpha" operator="out"/>
<feColorMatrix type="matrix" values="0 0 0 0 0.772537 0 0 0 0 0.772537 0 0 0 0 0.772537 0 0 0 0.31 0"/>
<feBlend mode="normal" in2="BackgroundImageFix" result="effect1_dropShadow_68_8"/>
<feBlend mode="normal" in="SourceGraphic" in2="effect1_dropShadow_68_8" result="shape"/>
</filter>
</defs>
</svg>
